<?xml version="1.0" encoding="UTF-8" standalone="no"?>
<!-- Created with Inkscape (http://www.inkscape.org/) -->

<svg
   xmlns:dc="http://purl.org/dc/elements/1.1/"
   xmlns:cc="http://creativecommons.org/ns#"
   xmlns:rdf="http://www.w3.org/1999/02/22-rdf-syntax-ns#"
   xmlns:svg="http://www.w3.org/2000/svg"
   xmlns="http://www.w3.org/2000/svg"
   xmlns:sodipodi="http://sodipodi.sourceforge.net/DTD/sodipodi-0.dtd"
   xmlns:inkscape="http://www.inkscape.org/namespaces/inkscape"
   width="400"
   height="400"
   viewBox="0 0 105.83333 105.83333"
   version="1.1"
   id="svg8"
   inkscape:export-filename="/home/cayobuay/Documents/aphive Images/aphive_square.png"
   inkscape:export-xdpi="96"
   inkscape:export-ydpi="96"
   inkscape:version="0.92.4 (5da689c313, 2019-01-14)"
   sodipodi:docname="ahive-logo.svg">
  <defs
     id="defs2" />
  <sodipodi:namedview
     id="base"
     pagecolor="#ffffff"
     bordercolor="#666666"
     borderopacity="1.0"
     inkscape:pageopacity="0.0"
     inkscape:pageshadow="2"
     inkscape:zoom="1.28"
     inkscape:cx="195.52904"
     inkscape:cy="267.6686"
     inkscape:document-units="px"
     inkscape:current-layer="layer1"
     showgrid="false"
     fit-margin-top="0"
     fit-margin-left="0"
     fit-margin-right="0"
     fit-margin-bottom="0"
     units="px"
     inkscape:showpageshadow="false"
     showguides="true"
     inkscape:guide-bbox="true"
     inkscape:window-width="1920"
     inkscape:window-height="1023"
     inkscape:window-x="0"
     inkscape:window-y="28"
     inkscape:window-maximized="1">
    <sodipodi:guide
       position="178.32592,158.7013"
       orientation="0,1"
       id="guide853"
       inkscape:locked="false" />
    <sodipodi:guide
       position="158.75,312.67906"
       orientation="1,0"
       id="guide857"
       inkscape:locked="false" />
    <sodipodi:guide
       position="76.894529,105.83333"
       orientation="0,1"
       id="guide819"
       inkscape:locked="false" />
    <sodipodi:guide
       position="125.47037,0"
       orientation="0,1"
       id="guide821"
       inkscape:locked="false" />
    <sodipodi:guide
       position="0,116.99544"
       orientation="1,0"
       id="guide823"
       inkscape:locked="false" />
    <sodipodi:guide
       position="105.83333,112.65462"
       orientation="1,0"
       id="guide825"
       inkscape:locked="false" />
  </sodipodi:namedview>
  <metadata
     id="metadata5">
    <rdf:RDF>
      <cc:Work
         rdf:about="">
        <dc:format>image/svg+xml</dc:format>
        <dc:type
           rdf:resource="http://purl.org/dc/dcmitype/StillImage" />
        <dc:title></dc:title>
        <dc:creator>
          <cc:Agent>
            <dc:title />
          </cc:Agent>
        </dc:creator>
      </cc:Work>
    </rdf:RDF>
  </metadata>
  <g
     inkscape:label="Layer 1"
     inkscape:groupmode="layer"
     id="layer1"
     transform="translate(205.03507,-332.70168)">
    <path
       style="font-style:normal;font-weight:normal;font-size:40px;line-height:1.25;font-family:sans-serif;letter-spacing:0px;word-spacing:0px;fill:#000000;fill-opacity:1;stroke:none;stroke-width:3.87324047"
       d="m -150.07592,332.70168 c -12.55777,0 -22.31649,3.53026 -29.27621,10.59086 -6.90929,7.01015 -10.36397,16.86985 -10.36397,29.57892 v 65.66355 h 30.71354 v -24.58602 h 8.851 v -27.23381 h -8.851 v -12.86034 c 0,-7.15116 2.3889,-10.73164 7.16627,-10.74192 v -0.007 h 9.36705 v 0.0201 h 23.1803 v 10.80819 h -15.75531 v 17.1877 c 1.67102,-0.63268 3.42742,-0.96654 5.26897,-1.00169 4.331,0 8.03111,1.59934 11.10033,4.79788 2.1101,2.17482 3.49483,4.65695 4.15424,7.44648 V 371.8132 c 0,-13.31426 -2.89997,-23.14856 -8.69973,-29.50309 -5.79977,-6.40495 -14.7516,-9.60746 -26.85548,-9.60746 z m 4.59605,36.79812 c 1.3e-4,0.001 2.7e-4,0.002 3.9e-4,0.004 v -0.004 z m 15.70459,31.42766 c -1.46642,0 -2.71123,0.52719 -3.73429,1.58164 -1.02308,1.05446 -1.53468,2.33754 -1.53468,3.84892 h -10.19002 v 10.75546 h 10.19002 v 5.43036 c 0,1.51138 0.5116,2.79426 1.53468,3.84872 1.02306,1.01931 2.26787,1.5291 3.73429,1.5291 1.4664,0 2.69395,-0.50979 3.68291,-1.5291 1.02308,-1.05446 1.53469,-2.33734 1.53469,-3.84872 v -16.18582 c 0,-1.51138 -0.5116,-2.79446 -1.53469,-3.84892 -0.98896,-1.05445 -2.21651,-1.58164 -3.68291,-1.58164 z m -15.45899,24.59617 v 13.01138 h 12.91167 c -3.25257,-0.51001 -6.10391,-2.02603 -8.55305,-4.55028 -2.36247,-2.43495 -3.81461,-5.25562 -4.35862,-8.4611 z m 30.71356,1.01461 c -0.65941,2.78953 -2.04414,5.27167 -4.15424,7.44649 -2.44913,2.52425 -5.30046,4.04027 -8.55303,4.55028 h 12.70725 z"
       id="flowRoot817"
       inkscape:connector-curvature="0" />
  </g>
</svg>
